<svg width="24" height="25" viewBox="0 0 24 25" fill="none" xmlns="http://www.w3.org/2000/svg">
<path d="M16 8.99805C17.5913 8.99805 19.1174 9.63019 20.2426 10.7554C21.3679 11.8806 22 13.4067 22 14.998V21.998H18V14.998C18 14.4676 17.7893 13.9589 17.4142 13.5838C17.0391 13.2088 16.5304 12.998 16 12.998C15.4696 12.998 14.9609 13.2088 14.5858 13.5838C14.2107 13.9589 14 14.4676 14 14.998V21.998H10V14.998C10 13.4067 10.6321 11.8806 11.7574 10.7554C12.8826 9.63019 14.4087 8.99805 16 8.99805V8.99805Z" stroke="white" stroke-width="2" stroke-linecap="round" stroke-linejoin="round"/>
<path d="M6 9.99805H2V21.998H6V9.99805Z" stroke="white" stroke-width="2" stroke-linecap="round" stroke-linejoin="round"/>
<path d="M4 6.99805C5.10457 6.99805 6 6.10262 6 4.99805C6 3.89348 5.10457 2.99805 4 2.99805C2.89543 2.99805 2 3.89348 2 4.99805C2 6.10262 2.89543 6.99805 4 6.99805Z" stroke="white" stroke-width="2" stroke-linecap="round" stroke-linejoin="round"/>
</svg>
